# xmcd
#
# Track frame offsets: 
#        150
#        12546
#        27141
#        35015
#        46279
#        65734
#        81324
#        93448
#        105529
#        120230
#        133987
#
# Disc length: 2193 seconds
#
# Revision: 11
# Processed by: cddbd v1.5.2PL0 Copyright (c) Steve Scherf et al.
# Submitted via: ExactAudioCopy v0.99pb5
#
DISCID=92088f0b
DTITLE=Katia and Marielle Labeque (pianos) - Gladrags
DYEAR=2004
DGENRE=Classical
TTITLE0=Billy Mayerl¡EHonky-tonk, a rhytmical absurdity - Slow Fox-tro
TTITLE0=t
TTITLE1=Scott Joplin¡EThe Entertainer - Ragtime two-step (1902)
TTITLE2=George Gershwin and Will Donaldson¡ERialto Ripples - Rag (1916)
TTITLE3=Scott Joplin¡EAntoinette - March and Two-step (1906)
TTITLE4=Scott Joplin¡EMagnetic Rag  (1914)
TTITLE5=James P. Johnson¡ECarolina Shout - Fast jump (1926)
TTITLE6=Scott Joplin¡EMaple Leaf Rag  (1899)
TTITLE7=Scott Joplin¡EElite Syncopations  (1902)
TTITLE8=Scott Joplin¡EStrenuous Life - Ragtime two-step (1902)
TTITLE9=Scott Joplin¡EStop Time  (1910)
TTITLE10=Scott Joplin¡EBethena - Valse de concert (1905)
EXTD=YEAR: 1983
EXTT0=
EXTT1=
EXTT2=
EXTT3=
EXTT4=
EXTT5=
EXTT6=
EXTT7=
EXTT8=
EXTT9=
EXTT10=
PLAYORDER=
